<svg xmlns="http://www.w3.org/2000/svg" width="5.19" height="9.531" viewBox="0 0 5.19 9.531">
  <path fill="#243f4d" fill-rule="evenodd" d="M1517.47,560.538a0.454,0.454,0,0,0,.33-0.14l4.22-4.265a0.226,0.226,0,0,1,.02-0.013,0.44,0.44,0,0,0,.09-0.145h0a0.546,0.546,0,0,0,.05-0.217v0a0.518,0.518,0,0,0-.05-0.21h0a0.475,0.475,0,0,0-.09-0.148,0.2,0.2,0,0,0-.02-0.011l-4.22-4.265a0.461,0.461,0,0,0-.68.019,0.518,0.518,0,0,0-.13.352,0.525,0.525,0,0,0,.15.372l3.86,3.9-3.86,3.9a0.524,0.524,0,0,0-.15.371,0.519,0.519,0,0,0,.13.353A0.472,0.472,0,0,0,1517.47,560.538Z" transform="translate(-1517 -551)"/>
</svg>
