<svg xmlns="http://www.w3.org/2000/svg" width="18pt" height="15pt" viewBox="0 0 18 15" version="1.1">
<path fill="#a1a1a1" fill-rule="evenodd" d="M 10.859375 6.695312 C 10.910156 6.976562 10.945312 7.261719 10.945312 7.628906 C 10.945312 10.847656 8.875 13.125 5.761719 13.125 C 2.777344 13.125 0.359375 10.609375 0.359375 7.5 C 0.359375 4.390625 2.777344 1.875 5.761719 1.875 C 7.21875 1.875 8.433594 2.425781 9.378906 3.347656 L 7.910156 4.8125 C 7.511719 4.414062 6.8125 3.945312 5.761719 3.945312 C 3.917969 3.945312 2.414062 5.535156 2.414062 7.5 C 2.414062 9.464844 3.917969 11.054688 5.761719 11.054688 C 7.894531 11.054688 8.699219 9.449219 8.824219 8.628906 L 5.761719 8.628906 L 5.761719 6.695312 Z M 16.074219 6.882812 L 16.074219 5.25 L 14.496094 5.25 L 14.496094 6.882812 L 12.929688 6.882812 L 12.929688 8.523438 L 14.496094 8.523438 L 14.496094 10.15625 L 16.074219 10.15625 L 16.074219 8.523438 L 17.640625 8.523438 L 17.640625 6.882812 Z M 16.074219 6.882812 "/>
</svg>
