<svg xmlns="http://www.w3.org/2000/svg" width="11pt" height="16" viewBox="0 0 11 12"><path fill="#9a9a9a" fill-rule="evenodd" d="M0 10.875C0 11.496.527 12 1.18 12h8.64c.653 0 1.18-.504 1.18-1.125V4.5H0zm7.855-4.594c0-.156.133-.281.297-.281h.98a.29.29 0 01.298.281v.938a.289.289 0 01-.297.281h-.98a.289.289 0 01-.298-.281zm0 3c0-.156.133-.281.297-.281h.98a.29.29 0 01.298.281v.938a.289.289 0 01-.297.281h-.98a.289.289 0 01-.298-.281zm-3.14-3c0-.156.133-.281.293-.281h.984c.16 0 .293.125.293.281v.938a.288.288 0 01-.293.281h-.984a.288.288 0 01-.293-.281zm0 3c0-.156.133-.281.293-.281h.984c.16 0 .293.125.293.281v.938a.288.288 0 01-.293.281h-.984a.288.288 0 01-.293-.281zm-3.145-3c0-.156.133-.281.297-.281h.98a.29.29 0 01.298.281v.938a.289.289 0 01-.297.281h-.98a.289.289 0 01-.298-.281zm0 3c0-.156.133-.281.297-.281h.98a.29.29 0 01.298.281v.938a.289.289 0 01-.297.281h-.98a.289.289 0 01-.298-.281zM9.82 1.5H8.645V.375A.387.387 0 008.25 0h-.785a.387.387 0 00-.395.375V1.5H3.93V.375A.387.387 0 003.535 0H2.75a.387.387 0 00-.395.375V1.5H1.18C.527 1.5 0 2.004 0 2.625V3.75h11V2.625c0-.621-.527-1.125-1.18-1.125zm0 0"/></svg>