<svg xmlns="http://www.w3.org/2000/svg" width="24" height="20" viewBox="0 0 18 15"><path fill="#a1a1a1" fill-rule="evenodd" d="M10.86 6.695c.05.282.085.567.085.934 0 3.219-2.07 5.496-5.183 5.496-2.985 0-5.403-2.516-5.403-5.625 0-3.11 2.418-5.625 5.403-5.625a5.05 5.05 0 013.617 1.473L7.91 4.813c-.398-.399-1.098-.868-2.148-.868-1.844 0-3.348 1.59-3.348 3.555s1.504 3.555 3.348 3.555c2.133 0 2.937-1.606 3.062-2.426H5.762V6.695zm5.214.188V5.25h-1.578v1.633H12.93v1.64h1.566v1.633h1.578V8.523h1.567v-1.64zm0 0"/></svg>