<svg xmlns="http://www.w3.org/2000/svg" width="14pt" height="20" viewBox="0 0 14 15"><path fill="#a1a1a1" fill-rule="evenodd" d="M6.91 4.18c-1.96 0-3.543 1.523-3.543 3.406 0 1.887 1.582 3.406 3.543 3.406s3.547-1.52 3.547-3.406c0-1.883-1.586-3.406-3.547-3.406zm0 5.62c-1.265 0-2.3-.995-2.3-2.214 0-1.223 1.03-2.215 2.3-2.215 1.27 0 2.305.992 2.305 2.215C9.215 8.805 8.18 9.8 6.91 9.8zm4.516-5.757c0 .437-.371.789-.828.789-.457 0-.825-.355-.825-.789a.81.81 0 01.825-.797c.457 0 .828.356.828.797zm2.347.805c-.054-1.063-.304-2.008-1.117-2.782-.808-.78-1.789-1.023-2.894-1.074-1.14-.066-4.563-.066-5.703 0-1.106.047-2.082.293-2.895 1.07C.352 2.837.102 3.782.047 4.845-.02 5.94-.02 9.23.047 10.328c.05 1.063.305 2.004 1.117 2.781.813.774 1.785 1.02 2.895 1.07 1.14.063 4.562.063 5.703 0 1.105-.046 2.086-.292 2.894-1.07.809-.777 1.063-1.718 1.117-2.78.063-1.099.063-4.388 0-5.481zm-1.476 6.656a2.282 2.282 0 01-1.313 1.262c-.91.347-3.07.27-4.074.27-1.008 0-3.164.073-4.07-.27a2.288 2.288 0 01-1.317-1.262c-.359-.875-.277-2.953-.277-3.918 0-.965-.082-3.043.277-3.918A2.29 2.29 0 012.84 2.406c.906-.344 3.062-.265 4.07-.265 1.004 0 3.168-.075 4.074.265.606.235 1.07.68 1.313 1.262.363.875.277 2.953.277 3.918 0 .965.086 3.043-.277 3.918zm0 0"/></svg>